<svg version="1.1" id="Layer_1" xmlns="http://www.w3.org/2000/svg" xmlns:xlink="http://www.w3.org/1999/xlink" x="0px" y="0px"
	 width="100%" viewBox="0 0 208 160" enable-background="new 0 0 208 160" xml:space="preserve">
<path fill="#fff" opacity="1.000000" stroke="none" 
	d="
M196.665649,120.957504 
	C196.664368,96.303368 196.661667,72.142685 196.667877,47.982006 
	C196.668259,46.483757 196.620026,44.970501 196.807068,43.491116 
	C197.036697,41.675037 197.946533,40.269657 200.040344,40.474754 
	C201.974411,40.664196 202.295349,42.200821 202.306213,43.789017 
	C202.341537,48.954086 202.355927,54.119381 202.356995,59.284595 
	C202.361908,82.778770 202.366837,106.272949 202.355469,129.767120 
	C202.351868,137.240753 200.867920,138.867996 193.242432,138.903641 
	C171.248474,139.006470 149.253830,138.998383 127.259583,138.958466 
	C123.881844,138.952332 120.719048,139.284927 117.584839,140.788391 
	C112.766731,143.099594 107.762276,142.769684 103.191673,140.124939 
	C100.552246,138.597656 97.919098,138.303802 95.059387,138.445160 
	C73.079430,139.531616 51.083282,138.820236 29.095154,138.989227 
	C21.577700,139.047028 19.677763,136.971985 19.669970,129.418823 
	C19.641254,101.592476 19.651302,73.766090 19.653955,45.939713 
	C19.654066,44.774960 19.676304,43.605843 19.777985,42.446636 
	C19.889378,41.176712 20.499559,40.191616 21.858980,40.028053 
	C23.397388,39.842949 24.602509,40.703373 24.912479,42.053680 
	C25.315773,43.810516 25.329775,45.680637 25.331362,47.502163 
	C25.353998,73.495697 25.339834,99.489265 25.350060,125.482826 
	C25.352798,132.448013 25.665047,132.730057 32.780403,132.749023 
	C53.775005,132.805038 74.769623,132.894028 95.764191,132.884583 
	C99.328003,132.882996 102.628044,133.238403 105.765701,135.226776 
	C109.270355,137.447739 113.222832,137.469269 116.670433,135.269745 
	C119.691353,133.342438 122.811996,132.971725 126.180405,132.969345 
	C146.841705,132.954788 167.502991,132.913086 188.164276,132.873215 
	C196.663757,132.856827 196.663864,132.848694 196.668320,124.449608 
	C196.668854,123.450058 196.666992,122.450508 196.665649,120.957504 
z"/>
<path fill="#fff" opacity="1.000000" stroke="none" 
	d="
M156.818985,124.013367 
	C142.451569,125.674522 128.690765,127.915268 115.787758,133.793777 
	C113.021294,135.054153 110.184959,135.885361 107.173615,134.219681 
	C95.070061,127.524803 81.595917,126.098793 68.244774,124.337463 
	C59.007912,123.118889 49.726521,122.140167 40.384430,122.367851 
	C36.893768,122.452927 35.685223,120.857109 35.689884,117.540199 
	C35.732059,87.543526 35.729076,57.546707 35.667236,27.550081 
	C35.661144,24.594362 36.914555,23.159605 39.756191,23.147205 
	C62.531460,23.047812 85.037949,24.692869 106.084595,34.505421 
	C109.251511,35.981930 111.696808,36.082272 114.906197,34.594521 
	C130.056396,27.571480 146.172409,24.373547 162.771973,23.734760 
	C168.734467,23.505314 174.681473,22.944305 180.725571,23.413403 
	C185.318161,23.769844 186.246902,25.588947 186.200058,29.589062 
	C186.075180,40.252502 186.247726,50.919121 186.259323,61.584522 
	C186.279251,79.915878 186.164536,98.248260 186.343521,116.577896 
	C186.385422,120.869499 185.105667,122.636177 180.648102,122.387352 
	C172.812683,121.949966 165.042831,123.151329 156.818985,124.013367 
M155.787430,28.357262 
	C143.536072,29.903257 131.245117,31.732603 120.119980,37.267014 
	C113.650604,40.485325 108.625610,40.766960 101.744774,37.535862 
	C83.972832,29.190536 64.632065,27.621977 45.196709,27.311546 
	C41.053391,27.245367 40.163784,29.115292 40.174725,32.766590 
	C40.254604,59.428909 40.270489,86.091934 40.131519,112.753830 
	C40.111019,116.687218 41.489464,117.843399 45.325546,118.021500 
	C62.975182,118.840919 80.757339,120.115318 97.450912,125.964310 
	C107.447746,129.466934 115.882347,129.259720 125.761230,125.764610 
	C141.986893,120.024040 159.289597,119.026314 176.422195,118.029099 
	C179.566360,117.846092 181.823151,117.649948 181.801666,113.485672 
	C181.660797,86.157211 181.664474,58.827690 181.735397,31.498819 
	C181.744339,28.047216 180.164200,27.388329 177.143600,27.326212 
	C170.295624,27.185385 163.502289,27.751852 155.787430,28.357262 
z"/>
<path fill="#fff" opacity="1.000000" stroke="none" 
	d="
M121.176147,81.197769 
	C118.953484,82.788330 119.623329,84.473053 120.078766,86.330017 
	C122.018120,94.237373 123.783455,102.187248 125.667976,110.108353 
	C126.053375,111.728310 126.712341,113.290657 125.670364,115.035782 
	C115.690491,115.035782 105.655701,115.035782 95.176041,115.035782 
	C96.037949,106.862579 98.384415,99.582306 100.215645,92.221306 
	C101.550797,86.854378 102.049232,82.594337 97.416489,77.843796 
	C91.297600,71.569313 92.772896,60.194916 99.098831,54.270447 
	C105.335594,48.429489 115.747772,48.282516 121.902596,53.948559 
	C128.571915,60.088234 129.584641,70.767479 124.144508,78.029381 
	C123.351646,79.087761 122.360725,79.997765 121.176147,81.197769 
z"/>
</svg>